Coordinates
version=1
nRows=27
nColumns=12
inDegrees=yes

Units are S.I. units (second, meters, Newtons, ...)
Angles are in degrees

endheader
time	SC_y	SC_z	SC_x	AC_y	AC_z	AC_x	GH_y	GH_z	GH_yy	EL_x	PS_y
       0.0              -55.89          23.75          67.56           56.5         -10.02          19.75          -4.68          43.57          61.33           93.5          24.01
   0.01973              -55.89          23.75          67.56           56.5         -10.02          19.74         -4.674          43.57          61.31          93.49          24.02
   0.03946              -55.89          23.74          67.55          56.49         -10.02          19.74         -4.667          43.56          61.29          93.49          24.03
    0.0592              -55.88          23.74          67.55          56.49         -10.02          19.74         -4.661          43.55          61.28          93.49          24.04
   0.07893              -55.88          23.74          67.54          56.49         -10.01          19.74         -4.654          43.55          61.26          93.49          24.04
   0.09866              -55.88          23.73          67.54          56.49         -10.01          19.74         -4.646          43.54          61.24          93.49          24.06
    0.1184              -55.87          23.73          67.53          56.48         -10.01          19.74         -4.638          43.53          61.22          93.48          24.07
    0.1381              -55.87          23.73          67.53          56.48         -10.01          19.74         -4.629          43.52           61.2          93.48          24.08
    0.1579              -55.86          23.72          67.52          56.47         -10.01          19.74          -4.62          43.51          61.17          93.48          24.09
    0.1776              -55.86          23.72          67.52          56.47         -10.01          19.74          -4.61           43.5          61.15          93.48           24.1
    0.1973              -55.85          23.71          67.51          56.47          -10.0          19.74         -4.599          43.49          61.12          93.47          24.12
    0.2171              -55.84          23.71           67.5          56.46          -10.0          19.74         -4.588          43.48          61.09          93.47          24.14
    0.2368              -55.84           23.7          67.49          56.45         -9.998          19.74         -4.576          43.47          61.06          93.47          24.15
    0.2565              -55.83           23.7          67.49          56.45         -9.996          19.74         -4.562          43.46          61.03          93.46          24.17
    0.2763              -55.82          23.69          67.48          56.44         -9.993          19.74         -4.548          43.44          60.99          93.46          24.19
     0.296              -55.81          23.68          67.47          56.44          -9.99          19.73         -4.532          43.43          60.95          93.46          24.21
    0.3157              -55.81          23.68          67.46          56.43         -9.986          19.73         -4.515          43.41          60.91          93.45          24.24
    0.3354               -55.8          23.67          67.44          56.42         -9.982          19.73         -4.496          43.39          60.86          93.45          24.26
    0.3552              -55.78          23.66          67.43          56.41         -9.978          19.73         -4.476          43.37          60.81          93.44          24.29
    0.3749              -55.77          23.65          67.42           56.4         -9.974          19.73         -4.454          43.35          60.75          93.43          24.32
    0.3946              -55.76          23.64           67.4          56.39         -9.969          19.73         -4.429          43.33          60.69          93.43          24.35
    0.4144              -55.74          23.63          67.38          56.38         -9.963          19.72         -4.402           43.3          60.62          93.42          24.39
    0.4341              -55.73          23.61          67.37          56.37         -9.957          19.72         -4.373          43.27          60.55          93.41          24.43
    0.4538              -55.71           23.6          67.35          56.35         -9.951          19.72          -4.34          43.24          60.47           93.4          24.48
    0.4736              -55.69          23.58          67.32          56.34         -9.943          19.72         -4.303           43.2          60.37          93.39          24.53
    0.4933              -55.67          23.56           67.3          56.32         -9.935          19.71         -4.262          43.16          60.27          93.38          24.58
     0.513              -55.64          23.54          67.27           56.3         -9.926          19.71         -4.217          43.12          60.15          93.37          24.65
